# xmcd
#
# Track frame offsets:
#	150
#	21878
#	37904
#	53905
#	77253
#	98001
#	127839
#	144543
#	163423
#	185331
#	201967
#	212865
#	235821
#	260039
#	281853
#	292467
#	299561
#	310459
#	327471
#	342857
#
# Disc length: 4733 seconds
#
# Revision: 0
# Processed by: cddbd v1.5.2PL0 Copyright (c) Steve Scherf et al.
# Submitted via: audiograbber 1.83.01
#
DISCID=40127b14
DTITLE=Sampler - World Trade Center - In stillen Gedanken [CD 1)
DYEAR=1900
DGENRE=
TTITLE0=Jennifer Rush vs. djraiher - Power of Love (wtc-Putin)
TTITLE1=Enya - Only Time
TTITLE2=Enya - Only Time (deutsch
TTITLE3=R.E.M. - Everybody Hurts (Gedenkminuten)
TTITLE4=Lee Ann Remes - Please Remember me
TTITLE5=Don Henley - WTC version of New York Minute
TTITLE6=Garth Brooks - The Dance
TTITLE7=Jim Hulmann - Jim Hulmann
TTITLE8=Lee Greenwood - Proud to be an American
TTITLE9=Higher Faith - Angels In Heaven
TTITLE10=September - September 11th Tribute
TTITLE11=WTC - Attack - Hymne
TTITLE12=Live - Overcome
TTITLE13=Diamond Ri - One More Day
TTITLE14=Jewel - Hands Tribute
TTITLE15=Whitney Houston - America The Beautiful
TTITLE16=Star Spangled Banner - Pentagon and World Trade Center tribute
TTITLE17=Stuck - Stuck in a Moment
TTITLE18=God - God bless america
TTITLE19=Wind  - Wind Cries Mary
EXTD=
EXTT0=
EXTT1=
EXTT2=
EXTT3=
EXTT4=
EXTT5=
EXTT6=
EXTT7=
EXTT8=
EXTT9=
EXTT10=
EXTT11=
EXTT12=
EXTT13=
EXTT14=
EXTT15=
EXTT16=
EXTT17=
EXTT18=
EXTT19=
PLAYORDER=
